#!OML:ASF X:\für Bonn\!DataBase\2005_08_12_Daniel\c3d\Daniel.ASF
:FULLY-SPECIFIED
:DEGREES
80
root 3.5421 16.9348 -0.215917 61.6079 -102.304 -103.095
lowerback 39.2966 9.05725 -2.79612
upperback 12.0897 7.27242 -9.25468
thorax -4.90641 2.90388 -11.1191
lowerneck 10.165 2.62052 -4.57087
upperneck 7.60666 2.25771 13.9294
head 0.313185 0.843472 4.90792
rclavicle 4.57205e-014 1.59028e-014
rhumerus -21.1134 0.0969201 -94.2593
rradius 28.6868
rwrist 7.91389
rhand -19.5184 17.3057
rfingers 7.12502
rthumb 6.80477 -12.5649
lclavicle 4.57205e-014 1.59028e-014
lhumerus -23.065 -21.2041 79.0788
lradius 115.309
lwrist 14.461
lhand -17.9216 -23.2038
lfingers 7.12502
lthumb 8.34596 6.61133
rfemur 25.7013 -3.63672 8.069
rtibia 38.9961
rfoot -19.4647 -8.51641
rtoes -5.1502
lfemur -74.2751 -0.813434 -22.9291
ltibia 87.5591
lfoot 20.3777 2.23114
ltoes -19.2905
81
root 3.56789 16.9225 -0.224746 65.5045 -102.191 -105.786
lowerback 37.9919 8.66092 -3.18481
upperback 11.8888 6.83368 -9.32995
thorax -4.81028 2.71239 -10.7485
lowerneck 10.1703 2.79278 -4.80094
upperneck 7.68333 2.45533 14.0004
head 0.310518 0.936587 4.96256
rclavicle -1.78906e-014 4.45278e-014
rhumerus -22.8385 1.41215 -95.1031
rradius 28.8295
rwrist 9.02696
rhand -19.9774 17.6098
rfingers 7.12502
rthumb 6.36161 -12.2746
lclavicle -1.78906e-014 4.45278e-014
lhumerus -20.7196 -21.8566 78.1847
lradius 115.436
lwrist 14.513
lhand -18.1131 -23.1278
lfingers 7.12502
lthumb 8.16115 6.69456
rfemur 24.0834 -3.87233 8.52376
rtibia 39.7722
rfoot -20.1374 -8.96452
rtoes -5.01279
lfemur -73.0246 -0.998153 -23.577
ltibia 88.4282
lfoot 18.6492 1.7557
ltoes -19.2168
82
root 3.59101 16.903 -0.232195 69.4409 -102.109 -108.547
lowerback 36.715 8.24613 -3.5543
upperback 11.6828 6.3801 -9.39557
thorax -4.70786 2.51293 -10.3776
lowerneck 10.1855 2.96851 -5.02954
upperneck 7.75105 2.65989 14.0449
head 0.303248 1.03271 5.00827
rclavicle 1.59028e-015 -2.8625e-014
rhumerus -24.6709 2.81864 -95.9539
rradius 29.1478
rwrist 10.0372
rhand -20.4174 17.8954
rfingers 7.12502
rthumb 5.93686 -12.0015
lclavicle 1.59028e-015 -2.8625e-014
lhumerus -18.4138 -22.3828 77.3131
lradius 115.53
lwrist 14.5842
lhand -18.2428 -23.086
lfingers 7.12502
lthumb 8.03599 6.7412
rfemur 22.4297 -4.11904 8.9442
rtibia 40.6551
rfoot -20.8292 -9.36166
rtoes -4.93691
lfemur -71.6511 -1.14341 -24.2155
ltibia 89.2371
lfoot 16.7723 1.76416
ltoes -18.1534
83
root 3.61454 16.8814 -0.238694 73.2449 -102.036 -111.146
lowerback 35.4132 7.81926 -3.87599
upperback 11.4598 5.9344 -9.46625
thorax -4.5886 2.31884 -10.0435
lowerneck 10.2178 3.1447 -5.25823
upperneck 7.81172 2.86439 14.1068
head 0.290118 1.12755 5.05901
rclavicle 1.15295e-014 6.04305e-014
rhumerus -26.6261 4.345 -96.865
rradius 29.7153
rwrist 10.8834
rhand -20.7796 18.0617
rfingers 7.12502
rthumb 5.58717 -11.8447
lclavicle 1.15295e-014 6.04305e-014
lhumerus -16.0755 -22.845 76.3639
lradius 115.58
lwrist 14.6481
lhand -18.3142 -23.0111
lfingers 7.12502
lthumb 7.96711 6.81872
rfemur 20.697 -4.34687 9.3936
rtibia 41.599
rfoot -21.507 -9.75077
rtoes -4.79683
lfemur -70.2213 -1.23164 -24.7902
ltibia 89.9941
lfoot 14.9411 2.22319
ltoes -16.6077
84
root 3.63635 16.8563 -0.243784 76.93 -101.972 -113.719
lowerback 34.1894 7.38543 -4.16991
upperback 11.2402 5.48279 -9.50906
thorax -4.47247 2.11974 -9.70183
lowerneck 10.246 3.3301 -5.4879
upperneck 7.9075 3.07759 14.1447
head 0.287228 1.2275 5.1024
rclavicle 4.17448e-015 4.45278e-014
rhumerus -28.7128 5.95889 -97.794
rradius 30.4915
rwrist 11.4773
rhand -21.0905 18.1825
rfingers 7.12502
rthumb 5.28701 -11.7315
lclavicle 4.17448e-015 4.45278e-014
lhumerus -13.8704 -23.1897 75.4272
lradius 115.709
lwrist 14.6996
lhand -18.32 -22.9554
lfingers 7.12502
lthumb 7.9615 6.87462
rfemur 19.0473 -4.58649 9.81142
rtibia 42.5644
rfoot -22.1924 -10.0801
rtoes -4.79717
lfemur -68.6332 -1.27655 -25.3213
ltibia 90.7219
lfoot 13.123 2.85539
ltoes -15.4343
85
root 3.65728 16.8298 -0.248263 80.5407 -101.906 -116.337
lowerback 33.0586 6.94149 -4.41862
upperback 11.0375 5.0239 -9.52345
thorax -4.35258 1.91534 -9.36172
lowerneck 10.3099 3.52085 -5.74239
upperneck 7.97673 3.29733 14.1888
head 0.269031 1.32788 5.15087
rclavicle -4.65156e-014 1.17681e-013
rhumerus -30.8397 7.44588 -98.7081
rradius 31.3673
rwrist 11.8973
rhand -21.2514 18.2373
rfingers 7.12502
rthumb 5.13162 -11.6806
lclavicle -4.65156e-014 1.17681e-013
lhumerus -11.8297 -23.4507 74.4864
lradius 115.901
lwrist 14.7284
lhand -18.3181 -22.9083
lfingers 7.12502
lthumb 7.96336 6.92172
rfemur 17.5428 -4.87409 10.1964
rtibia 43.4932
rfoot -22.8356 -10.3316
rtoes -4.77867
lfemur -66.9131 -1.28398 -25.7952
ltibia 91.4622
lfoot 11.6178 3.81016
ltoes -14.7768
86
root 3.68045 16.8058 -0.251558 84.0225 -101.843 -118.851
lowerback 31.964 6.48914 -4.62108
upperback 10.8319 4.56432 -9.53034
thorax -4.23044 1.71049 -9.04662
lowerneck 10.365 3.7132 -5.99699
upperneck 8.0458 3.51972 14.2248
head 0.251617 1.42988 5.1965
rclavicle -1.0138e-014 4.45278e-014
rhumerus -32.9634 8.76394 -99.5847
rradius 32.273
rwrist 12.2113
rhand -21.3108 18.2175
rfingers 7.12502
rthumb 5.07425 -11.7018
lclavicle -1.0138e-014 4.45278e-014
lhumerus -9.86177 -23.6135 73.5401
lradius 116.087
lwrist 14.7443
lhand -18.2752 -22.9623
lfingers 7.12502
lthumb 8.00472 6.8661
rfemur 16.0713 -5.17671 10.5677
rtibia 44.3537
rfoot -23.3935 -10.5678
rtoes -4.89993
lfemur -65.1467 -1.26392 -26.1832
ltibia 92.1848
lfoot 10.5232 4.90783
ltoes -15.08
87
root 3.70666 16.7885 -0.254256 87.3157 -101.792 -121.212
lowerback 30.9506 6.04296 -4.80969
upperback 10.5798 4.10425 -9.52836
thorax -4.17403 1.50462 -8.7428
lowerneck 10.4921 3.91813 -6.23511
upperneck 8.12065 3.75599 14.2458
head 0.223381 1.53573 5.23316
rclavicle -4.69132e-014 6.99722e-014
rhumerus -35.0961 9.78298 -100.386
rradius 33.1281
rwrist 12.3785
rhand -21.2761 18.2219
rfingers 7.12502
rthumb 5.10778 -11.6965
lclavicle -4.69132e-014 6.99722e-014
lhumerus -7.99849 -23.7129 72.6218
lradius 116.221
lwrist 14.7749
lhand -18.1934 -23.1149
lfingers 7.12502
lthumb 8.08366 6.71047
rfemur 14.6663 -5.48996 10.9085
rtibia 45.1166
rfoot -23.8605 -10.7548
rtoes -4.91672
lfemur -63.3505 -1.21405 -26.4861
ltibia 92.8692
lfoot 9.78177 5.93174
ltoes -16.0729
